<?xml version="1.0" standalone="no"?>
<!DOCTYPE svg PUBLIC "-//W3C//DTD SVG 20010904//EN"
 "http://www.w3.org/TR/2001/REC-SVG-20010904/DTD/svg10.dtd">
<svg version="1.0" xmlns="http://www.w3.org/2000/svg"
 width="1083.000000pt" height="243.000000pt" viewBox="0 0 1083.000000 243.000000"
 preserveAspectRatio="xMidYMid meet">

<g transform="translate(0.000000,243.000000) scale(0.100000,-0.100000)"
fill="#000000" stroke="none">
<path d="M460 2381 c-173 -24 -328 -129 -396 -266 -25 -51 -29 -74 -32 -158
-6 -166 17 -219 169 -384 138 -150 145 -183 57 -265 l-50 -47 23 -41 c12 -22
27 -40 32 -40 25 0 159 91 208 140 83 84 104 134 104 245 0 110 -13 136 -140
274 -100 110 -133 161 -141 222 -20 144 168 243 297 156 44 -29 83 -110 99
-202 18 -107 8 -568 -14 -650 -52 -188 -140 -286 -353 -394 -106 -53 -111
-104 -15 -140 92 -33 182 -95 356 -243 43 -38 83 -68 88 -68 4 0 62 44 127 98
65 53 163 134 219 180 56 45 102 90 102 99 0 18 -46 83 -59 83 -4 0 -46 -30
-92 -66 -128 -101 -110 -102 -244 6 -63 51 -115 98 -115 104 0 6 38 41 85 79
135 107 233 239 281 375 21 61 25 99 34 298 15 334 25 388 85 444 20 19 37 25
73 25 83 0 128 -50 159 -175 33 -131 23 -1074 -12 -1235 -45 -202 -99 -326
-181 -415 -64 -69 -88 -75 -146 -35 -166 113 -411 92 -613 -52 -60 -44 -185
-154 -185 -164 0 -4 20 -24 45 -44 l45 -37 35 31 c66 58 112 75 200 75 70 1
89 -3 150 -32 39 -18 94 -50 123 -70 49 -33 55 -35 75 -22 12 8 94 58 182 113
88 54 193 123 233 153 263 197 385 401 437 729 20 129 29 462 16 660 -16 266
-60 408 -162 519 -90 99 -182 136 -339 136 -144 0 -189 -17 -273 -101 l-69
-69 -56 51 c-62 54 -134 93 -203 108 -66 15 -187 20 -249 12z"/>
<path d="M8290 2291 c0 -254 -124 -447 -320 -497 l-45 -11 -3 -62 -3 -61 101
0 100 0 -1 -162 c0 -90 -4 -273 -8 -408 -9 -274 -15 -300 -76 -326 -35 -14
-50 -40 -39 -68 3 -9 47 -36 98 -60 50 -24 126 -69 169 -100 l79 -56 76 47
c41 27 128 78 191 114 111 63 116 67 114 96 -2 17 -7 43 -13 57 l-9 26 -51
-20 c-80 -31 -113 -27 -165 21 l-45 42 0 398 0 398 133 3 132 3 0 85 0 85
-132 3 -133 3 0 259 0 260 -75 0 -75 0 0 -69z"/>
<path d="M9190 2291 c0 -254 -124 -447 -320 -497 l-45 -11 -3 -62 -3 -61 101
0 100 0 -1 -162 c0 -90 -4 -273 -8 -408 -9 -274 -15 -300 -76 -326 -35 -14
-50 -40 -39 -68 3 -9 47 -36 98 -60 50 -24 126 -69 169 -100 l79 -56 76 47
c41 27 128 78 191 114 111 63 116 67 114 96 -2 17 -7 43 -13 57 l-9 26 -51
-20 c-80 -31 -113 -27 -165 21 l-45 42 0 398 0 398 133 3 132 3 0 85 0 85
-132 3 -133 3 0 259 0 260 -75 0 -75 0 0 -69z"/>
<path d="M2350 1764 c-85 -57 -185 -120 -222 -140 -38 -19 -68 -37 -68 -39 0
-5 32 -88 36 -93 1 -2 24 8 51 21 95 47 134 42 168 -22 34 -67 28 -568 -9
-639 -8 -16 -29 -44 -46 -60 -32 -32 -41 -81 -17 -99 6 -6 57 -25 112 -43 112
-37 251 -99 339 -153 l59 -35 81 52 c44 30 142 89 215 132 271 159 336 270
348 595 11 300 -46 427 -253 565 -45 30 -84 54 -88 54 -4 0 -28 -17 -54 -38
-74 -58 -289 -185 -301 -177 -6 3 -11 12 -11 19 0 7 -14 39 -30 72 -31 60
-109 135 -140 133 -8 0 -85 -47 -170 -105z m577 -221 c81 -38 116 -151 116
-373 1 -152 -12 -234 -53 -342 -11 -31 -29 -67 -39 -79 l-18 -23 -76 37 c-43
20 -97 50 -122 67 l-45 31 2 322 3 321 65 28 c75 32 118 35 167 11z"/>
<path d="M4124 1767 c-275 -140 -330 -185 -386 -318 -22 -51 -23 -67 -23 -284
0 -210 2 -236 22 -301 44 -140 128 -233 278 -307 124 -61 176 -81 190 -71 7 5
57 42 111 83 54 41 160 117 236 169 76 51 138 96 138 100 0 16 -34 92 -41 92
-4 0 -37 -18 -72 -40 -88 -55 -163 -80 -241 -80 -81 0 -104 9 -162 62 -50 46
-88 112 -97 169 l-5 36 216 98 c278 125 372 173 372 186 0 29 -306 509 -324
509 -6 -1 -101 -47 -212 -103z m147 -360 c22 -43 39 -80 37 -82 -8 -7 -99 -51
-170 -81 l-78 -33 0 142 c0 147 13 225 45 274 l17 26 54 -84 c30 -46 73 -119
95 -162z"/>
<path d="M5330 1763 c-143 -87 -191 -123 -261 -192 -47 -48 -95 -106 -107
-131 -96 -202 -87 -589 16 -750 39 -60 114 -135 181 -179 l53 -35 52 29 c206
117 331 183 336 180 4 -2 13 -23 21 -47 16 -49 76 -113 133 -142 33 -18 40
-18 59 -6 12 8 87 51 167 97 80 45 150 86 157 90 6 5 14 29 18 55 l6 48 -61
-7 c-41 -4 -68 -2 -85 7 -46 25 -50 53 -50 380 0 338 3 354 65 380 33 13 50
53 34 78 -5 8 -63 33 -129 57 -137 48 -270 108 -354 160 -32 19 -63 35 -67 35
-5 -1 -88 -49 -184 -107z m170 -203 l100 -50 -2 -346 -3 -346 -60 -25 c-75
-32 -145 -34 -182 -7 -69 52 -92 123 -100 319 -6 157 7 287 38 370 24 64 73
135 94 135 9 0 60 -23 115 -50z"/>
<path d="M6540 1773 c-80 -53 -182 -117 -226 -142 -70 -40 -80 -49 -74 -66 5
-11 13 -32 19 -47 l10 -28 57 25 c31 14 71 25 89 25 40 0 74 -34 85 -87 5 -21
12 -235 16 -475 l7 -438 173 0 174 0 0 430 0 431 104 50 c134 66 172 71 216
32 l33 -30 8 -379 c4 -238 12 -396 19 -426 9 -37 25 -59 72 -104 52 -50 63
-56 91 -51 31 5 346 151 394 183 22 14 22 15 6 49 -19 39 -21 40 -92 23 -39
-9 -57 -9 -76 0 -52 24 -57 56 -62 427 l-5 340 30 28 c16 16 47 35 68 42 35
12 39 17 39 46 0 32 -5 36 -91 84 -101 56 -169 102 -198 134 -11 11 -23 21
-29 21 -5 0 -81 -47 -169 -105 -197 -130 -306 -194 -338 -197 -22 -3 -25 2
-35 58 -7 33 -22 82 -34 108 -24 48 -104 136 -124 136 -7 0 -77 -44 -157 -97z"/>
<path d="M10260 1780 c-100 -50 -207 -108 -238 -129 -169 -116 -210 -230 -198
-549 8 -184 18 -237 63 -324 61 -118 164 -196 364 -278 l56 -22 104 79 c57 43
168 123 247 177 78 53 142 104 142 111 0 19 -32 85 -41 85 -4 0 -40 -20 -81
-45 -40 -25 -95 -52 -122 -60 -71 -21 -168 -19 -215 4 -77 40 -156 157 -149
222 3 30 10 34 228 133 279 127 350 163 350 178 0 28 -301 508 -319 508 -5 0
-91 -41 -191 -90z m36 -222 c70 -113 124 -211 124 -225 0 -9 -151 -85 -224
-113 l-28 -10 4 162 c4 117 10 175 22 207 15 40 33 71 42 71 1 0 28 -41 60
-92z"/>
</g>
</svg>
